<svg xmlns="http://www.w3.org/2000/svg" xmlns:xlink="http://www.w3.org/1999/xlink" viewBox="0 0 1399.85 755.86"><defs><style>.cls-1{stroke:#50529f;stroke-miterlimit:10;stroke-width:5px;fill-rule:evenodd;fill:url(#Dégradé_sans_nom_107);}.cls-2{fill:#50529f;}</style><linearGradient id="Dégradé_sans_nom_107" x1="181.37" y1="752.53" x2="1152.47" y2="-218.57" gradientUnits="userSpaceOnUse"><stop offset="0" stop-color="#50529f"/><stop offset="0.1" stop-color="#4558a4"/><stop offset="0.2" stop-color="#668ec9"/><stop offset="0.3" stop-color="#4babe1"/><stop offset="0.4" stop-color="#5dc2d5"/><stop offset="0.5" stop-color="#5dbcaa"/><stop offset="0.6" stop-color="#5ebca3"/><stop offset="0.7" stop-color="#5abba1"/></linearGradient></defs><g id="Calque_2" data-name="Calque 2"><g id="Calque_1-2" data-name="Calque 1"><path class="cls-1" d="M790,451a210,210,0,0,0-37-89.72q-33.9-47.21-91-77.46-50.6-26.59-101.32-31.56a686.75,686.75,0,0,0-101.85-2.34q-17.21,1.31-23.47,21.38-19.56,63.38-24.25,162.61T409,604.11q.25,10.17,5,17.21t19.56,8.61q46.94,6.26,94.41,10.82A361,361,0,0,0,620.49,638a214.59,214.59,0,0,0,66-21.38,188.28,188.28,0,0,0,53.46-41q20.61-22.42,37.95-56.2T790,451ZM667.7,483.62q-8.36,19.81-33.25,27t-46.3,7.95A134.71,134.71,0,0,1,555,516a125.4,125.4,0,0,1-31-10.7,6.2,6.2,0,0,1-2.35-3.39q-1.57-3.12-1-20.86t2.48-38.21q2-20.48,4.7-37.69t5.6-19.82A26.18,26.18,0,0,1,548.77,379a93.8,93.8,0,0,1,16.69,1.05A201.68,201.68,0,0,1,630.4,399.9a212.19,212.19,0,0,1,19.56,12q22.69,17.46,24.26,37.55A80.84,80.84,0,0,1,667.7,483.62ZM381.34,585.33Q363.87,515.44,358.51,430T367,277.32q1.31-7,3-14.6a58.49,58.49,0,0,0,1.43-14.87q-1-13-14.47-17.47t-30.64-3.53a160.67,160.67,0,0,0-33.52,5.35q-16.29,4.44-22.82,8.87a45.28,45.28,0,0,0-17.08,22.82,176.28,176.28,0,0,0-7.43,27.77q-3.92,21.66-4.7,52.69t1.05,65.2q-22.69,2.34-56.47,7.3t-63.77,9.65q-9.64-76.41-6.25-146.57,1-20.87-9.13-26.86t-27.13-6.26A173,173,0,0,0,53,249q-14.34,2.22-24.51,7.7A33,33,0,0,0,14.64,272.1q-6.78,14.61-9.38,35.47Q1.6,332.1,2.78,370.82T8.65,451Q13.35,492.48,21,531.08T38.64,594.2a155,155,0,0,0,12.65,26.08,44,44,0,0,0,21.25,18.78q7.3,3.39,24.26,4.56a158.44,158.44,0,0,0,33.9-1.3q17-2.49,29.34-9.39T170.87,613a53.16,53.16,0,0,0-4.31-14.22q-3.26-7.17-5.86-13.69Q148.18,555.59,138.53,517q24-1,56.07-5.22t56.07-11.73q7.31,50.85,17.22,79.28,6.78,20.34,16.17,32.86,6.51,9.66,16.43,12.52,11.2,3.66,25.69,3a167.07,167.07,0,0,0,25.95-3q16.42-3.13,25.29-11.08T381.34,585.33ZM1388.73,19.4l-.06,0-1.94-.68c-1.22-.42-3-1-5.23-1.71-4.49-1.41-10.93-3.29-18.9-5.22a328.11,328.11,0,0,0-63-9c-49.67-2.06-112.67,8.14-158.08,60-37.57,42.89-43.23,105.91-6.72,150.2a313.88,313.88,0,0,0-20.88,49.14q-6.95-2.85-13.52-4.83-44.85-13.83-103.54-13.43t-101.45,9c-4.35.88-8.78,1.61-13.3,2.22a82,82,0,0,0-12.78,2.74,33,33,0,0,0-16.43,12.52q-8.34,12-15.13,32.34-7.56,23-12.78,60.24t-7.17,78q-1.95,40.7-.39,79t7.3,63.37a174.9,174.9,0,0,0,8.48,27.13,41.87,41.87,0,0,0,18.12,21.38q6.78,4.44,23.61,8.35a167.26,167.26,0,0,0,34.29,4.3q17.47.39,31-4.17t14.08-17.61a52.08,52.08,0,0,0-2.08-14.34c-1.4-4.86-2.61-9.56-3.66-14.08q-10.17-41.48-13-96a559.29,559.29,0,0,0,69.51.39q35.07-2,45-12.91,7.82-8.59,12.39-39.77t-18.91-35.08q-11.22-1.82-42-3t-64.68-1.69q2.34-33.12,7-64.42a511.53,511.53,0,0,1,77.07,2.09q36.9,3.9,78.89,17.21,6,2.08,12.52,4.43a42.68,42.68,0,0,0,12.78,2.61q23.47,1.56,23.47-35.34t-6.52-49.42a37.14,37.14,0,0,0-4.93-7A272.16,272.16,0,0,1,1155,231.44c23.25,15.32,55.39,20.88,84.87,14.72,36.45-7.62,70.25-33.44,80.49-82.08,10.71-50.86,29-81.2,43.81-98.57A106.5,106.5,0,0,1,1383,47.92a55.24,55.24,0,0,1,5.26-3.37c.56-.32,1-.52,1.17-.63l.17-.08a13.21,13.21,0,0,0-.82-24.44Zm-44.65,28.93c-17.93,21-38,55.43-49.59,110.3-7.84,37.27-32.69,55.94-60,61.65-24.56,5.13-50.08-.39-66.65-12.11.71-1.16,1.42-2.32,2.14-3.46,16-25.63,34.65-47,52.29-58.79a13.22,13.22,0,1,0-14.66-22c-21.26,14.18-41.6,37.87-58.31,64-20.58-32.52-15.79-76,12.1-107.8,37.9-43.26,91.25-52.89,137.1-51a301.8,301.8,0,0,1,56.28,7.91A151,151,0,0,0,1344.08,48.33Z"/><path class="cls-2" d="M291.67,737.24a63.1,63.1,0,0,0,3,9.18c.24.58.5,1.2.79,1.84a6.9,6.9,0,0,1,.58,1.92,2.54,2.54,0,0,1-1.45,2.69,11.75,11.75,0,0,1-4,1.27,21.2,21.2,0,0,1-4.57.17,10.13,10.13,0,0,1-3.27-.61,6,6,0,0,1-2.86-2.54,20.18,20.18,0,0,1-1.71-3.51,48.39,48.39,0,0,1-2.37-8.51q-1-5.21-1.67-10.79c-.42-3.73-.69-7.33-.79-10.81a49.19,49.19,0,0,1,.33-8.53,16,16,0,0,1,1.27-4.78,4.4,4.4,0,0,1,1.86-2.07,10,10,0,0,1,3.3-1,23.12,23.12,0,0,1,3.52-.3,7.5,7.5,0,0,1,3.66.84q1.37.81,1.23,3.63a112.92,112.92,0,0,0,.84,19.75q4-.63,8.6-1.3t7.61-1c-.17-3.07-.21-6-.14-8.79a47.55,47.55,0,0,1,.63-7.1,23.28,23.28,0,0,1,1-3.75,6.15,6.15,0,0,1,2.3-3.07,11.07,11.07,0,0,1,3.08-1.2,21.21,21.21,0,0,1,4.52-.72,11.26,11.26,0,0,1,4.13.48,2.55,2.55,0,0,1,1.95,2.35,8.15,8.15,0,0,1-.19,2c-.16.68-.29,1.33-.41,2a78.52,78.52,0,0,0-1.14,20.59,116.51,116.51,0,0,0,3.08,20.93c.44,1.83.26,3.1-.53,3.82a7,7,0,0,1-3.41,1.49,22.91,22.91,0,0,1-3.5.41,9.63,9.63,0,0,1-3.46-.41,4,4,0,0,1-2.22-1.68,15.9,15.9,0,0,1-2.18-4.43A60.33,60.33,0,0,1,306.79,735a43.62,43.62,0,0,1-7.56,1.58C296.35,736.91,293.83,737.15,291.67,737.24Z"/><path class="cls-2" d="M352.32,729c-.26-.71-1.28-1.48-3.06-2.3a17.25,17.25,0,0,0-6.82-.17,9.74,9.74,0,0,0-4.34,1.81,4.91,4.91,0,0,1-4.11.89,4.39,4.39,0,0,1-3.33-2.62,3.12,3.12,0,0,1,.48-3.71,17.23,17.23,0,0,1,2.62-2.35,11.16,11.16,0,0,1,1.65-1,14.86,14.86,0,0,1,4.66-1.58,37.24,37.24,0,0,1,4.83-.46,26.66,26.66,0,0,1,6.33.6,23.6,23.6,0,0,1,4.73,1.49A11.93,11.93,0,0,1,362.23,731c-.18,2.82-.29,6.17-.31,10,0,4.25.49,7.42,1.54,9.53.12.33.24.68.37,1.06a2.9,2.9,0,0,1,.16,1.12,2.38,2.38,0,0,1-.81,1.76,4.85,4.85,0,0,1-2.48,1.09,6.18,6.18,0,0,1-3.07-.14,15,15,0,0,1-2-.77A4.06,4.06,0,0,1,354,753a11.2,11.2,0,0,1-.63-1.47,16.88,16.88,0,0,1-3.17,2,17.57,17.57,0,0,1-6.15,1.37,18.69,18.69,0,0,1-6.36-1,17.62,17.62,0,0,1-4.25-2.06,8.75,8.75,0,0,1-3-3.22,9.42,9.42,0,0,1-.95-4.32,11.12,11.12,0,0,1,1.9-6.33c.66-.91,1.27-1.76,1.85-2.53a18.71,18.71,0,0,1,3.71-3.23,14.16,14.16,0,0,1,6.92-2.54,26.15,26.15,0,0,1,8.69.6C352.66,730.12,352.58,729.68,352.32,729Zm-7.24,8.27a6.07,6.07,0,0,0-3,2.83,3.85,3.85,0,0,0,.36,4.3c1,1.54,2.68,1.95,5,1.25a6.86,6.86,0,0,0,3.34-2,6.2,6.2,0,0,0,1.44-2.78,3,3,0,0,0-.82-2.74,4.89,4.89,0,0,0-2.78-1.39A6.58,6.58,0,0,0,345.08,737.23Z"/><path class="cls-2" d="M378,751.69a4.45,4.45,0,0,1-1.86,2.08,7.14,7.14,0,0,1-2.27.65,16.54,16.54,0,0,1-3.3.19,8.21,8.21,0,0,1-2.94-.62,1.82,1.82,0,0,1-1.23-1.84,5.18,5.18,0,0,1,.28-1.42c.17-.48.31-1,.43-1.39a57.32,57.32,0,0,0,2.26-14.72,186.12,186.12,0,0,0-.75-21.14q-1.12-7.38-.18-8.07a5.31,5.31,0,0,1,2.57-.86,19.12,19.12,0,0,1,2.55,0,6.54,6.54,0,0,1,2.4.53,3,3,0,0,1,1.52,1.37q.35.57,1.44,12.59a15.9,15.9,0,0,1,7.91.24,22.63,22.63,0,0,1,9.38,5.1c.43.4.86.82,1.31,1.27a19.75,19.75,0,0,1,2.7,3.25,34.2,34.2,0,0,1,2.11,3.6,16.87,16.87,0,0,1,1.72,8.37,14.17,14.17,0,0,1-1.26,5.55,10.81,10.81,0,0,1-3.36,4,17.38,17.38,0,0,1-4.69,2.46,17,17,0,0,1-6.86.85,15.8,15.8,0,0,1-6.54-2.15,19.07,19.07,0,0,1-2.56-1.72A16.06,16.06,0,0,1,378,751.69Zm13.54-18.4a4.47,4.47,0,0,0-3.27-.81,7.54,7.54,0,0,0-3.59,1.55,6.51,6.51,0,0,0-2.39,3.35,7,7,0,0,0-.16,3.48,3.79,3.79,0,0,0,2.27,2.57c1.92,1,3.83.57,5.73-1.25s2.85-3.57,2.85-5.25S392.48,734,391.52,733.29Z"/><path class="cls-2" d="M407.55,739.12q-.84-11.5,3.2-19.1a12,12,0,0,1,3-.14,25.33,25.33,0,0,1,3.13.31c.89.17,1.6.32,2.14.46a1.64,1.64,0,0,1,.49.21,3.33,3.33,0,0,1,.39.35l.42.39.39.42a2.41,2.41,0,0,1,.21.53l.21.84c0,.07.05.35.14.85.05.32-.16,3-.61,8.12a74.82,74.82,0,0,0,.82,17.68,13.08,13.08,0,0,1-.31,2.11,5.13,5.13,0,0,1-.5,1.41,2.79,2.79,0,0,1-1.82.91,7.59,7.59,0,0,1-1.41.16c-.52,0-1,0-1.58,0a21.58,21.58,0,0,1-3.13-.32,14.05,14.05,0,0,1-2.18-.45l-.42-.21a2.56,2.56,0,0,1-.46-.36,3.16,3.16,0,0,1-.39-.38,2.52,2.52,0,0,1-.35-.42,1.12,1.12,0,0,1-.25-.53,5.48,5.48,0,0,1-.21-.85Q408.4,750.64,407.55,739.12Zm12.09-31.92a5.72,5.72,0,0,1,0,8.46,6.61,6.61,0,0,1-9,0,5.74,5.74,0,0,1,0-8.46,6.64,6.64,0,0,1,9,0Z"/><path class="cls-2" d="M433.18,718.68c0-.28,0-.57,0-.88a36,36,0,0,1,.71-6.1,11,11,0,0,1,1.47-3.53,4.49,4.49,0,0,1,2-1.79,9.49,9.49,0,0,1,2.78-.62,19.23,19.23,0,0,1,2.92,0,7.38,7.38,0,0,1,3.48,1.08c.84.57,1.14,1.72.88,3.46q-.21,5-.42,8.26c.49,0,1,.06,1.47.11a26.26,26.26,0,0,1,4,.59,14.75,14.75,0,0,1,2.11,1.23,3.33,3.33,0,0,1,1.3,1.9,5.69,5.69,0,0,1,0,4,3.66,3.66,0,0,1-3,2.2,25.57,25.57,0,0,1-5.8.2V729q-.75,9.27.52,12.28a8.77,8.77,0,0,0,4.22,4.52q3,1.51,2,5.22t-5.4,4.29a11,11,0,0,1-8.59-2.76,16.27,16.27,0,0,1-5.47-9.53A66.66,66.66,0,0,1,433,729.37v-1q-2.3.11-4.5,0a8.45,8.45,0,0,1-1,.11,2.65,2.65,0,0,1-.77-.11,1.21,1.21,0,0,1-.6-.42,1.93,1.93,0,0,1-.49-.77,12,12,0,0,1-.37-3.36,10.34,10.34,0,0,1,.37-2.3,2.74,2.74,0,0,1,1.89-1.72,18,18,0,0,1,2.18-.67c.52-.1,1.3-.22,2.36-.39C432.32,718.77,432.69,718.73,433.18,718.68Z"/><path class="cls-2" d="M482.43,729c-.26-.71-1.28-1.48-3.06-2.3a17.24,17.24,0,0,0-6.82-.17,9.79,9.79,0,0,0-4.34,1.81,4.9,4.9,0,0,1-4.11.89,4.36,4.36,0,0,1-3.32-2.62,3.11,3.11,0,0,1,.47-3.71,17.72,17.72,0,0,1,2.62-2.35,11.16,11.16,0,0,1,1.65-1,15,15,0,0,1,4.66-1.58,37.57,37.57,0,0,1,4.83-.46,26.66,26.66,0,0,1,6.33.6,23.4,23.4,0,0,1,4.73,1.49,11.11,11.11,0,0,1,4.43,4.1,11.26,11.26,0,0,1,1.85,7.33c-.19,2.82-.3,6.17-.32,10,0,4.25.49,7.42,1.55,9.53.11.33.24.68.37,1.06a2.89,2.89,0,0,1,.15,1.12,2.37,2.37,0,0,1-.8,1.76,4.89,4.89,0,0,1-2.48,1.09,6.21,6.21,0,0,1-3.08-.14,14.68,14.68,0,0,1-2-.77,3.94,3.94,0,0,1-1.65-1.66,12.87,12.87,0,0,1-.64-1.47,17.18,17.18,0,0,1-3.16,2,17.57,17.57,0,0,1-6.15,1.37,18.74,18.74,0,0,1-6.37-1,18,18,0,0,1-4.25-2.06,8.72,8.72,0,0,1-2.95-3.22,9.29,9.29,0,0,1-.95-4.32,11.11,11.11,0,0,1,1.89-6.33l1.85-2.53a18.71,18.71,0,0,1,3.71-3.23,14.23,14.23,0,0,1,6.93-2.54,26.09,26.09,0,0,1,8.68.6C482.77,730.12,482.69,729.68,482.43,729Zm-7.24,8.27a6.05,6.05,0,0,0-3,2.83,3.83,3.83,0,0,0,.35,4.3c1,1.54,2.68,1.95,5,1.25a6.91,6.91,0,0,0,3.34-2,6.2,6.2,0,0,0,1.44-2.78,3,3,0,0,0-.83-2.74,4.86,4.86,0,0,0-2.78-1.39A6.58,6.58,0,0,0,475.19,737.23Z"/><path class="cls-2" d="M505.11,718.68c0-.28,0-.57,0-.88a36,36,0,0,1,.71-6.1,10.79,10.79,0,0,1,1.47-3.53,4.49,4.49,0,0,1,2-1.79,9.49,9.49,0,0,1,2.78-.62,19.23,19.23,0,0,1,2.92,0,7.38,7.38,0,0,1,3.48,1.08c.84.57,1.13,1.72.88,3.46q-.21,5-.42,8.26c.49,0,1,.06,1.47.11a26.26,26.26,0,0,1,4,.59,14.75,14.75,0,0,1,2.11,1.23,3.33,3.33,0,0,1,1.3,1.9,5.69,5.69,0,0,1,0,4,3.66,3.66,0,0,1-3,2.2,25.57,25.57,0,0,1-5.8.2V729q-.75,9.27.52,12.28a8.77,8.77,0,0,0,4.22,4.52q3,1.51,2,5.22t-5.4,4.29a11,11,0,0,1-8.59-2.76,16.27,16.27,0,0,1-5.47-9.53,66.66,66.66,0,0,1-1.42-13.67v-1q-2.29.11-4.5,0a8.45,8.45,0,0,1-.95.11,2.77,2.77,0,0,1-.78-.11,1.23,1.23,0,0,1-.59-.42,1.93,1.93,0,0,1-.49-.77,12,12,0,0,1-.37-3.36,10.34,10.34,0,0,1,.37-2.3,2.74,2.74,0,0,1,1.89-1.72,18,18,0,0,1,2.18-.67c.52-.1,1.3-.22,2.36-.39C504.25,718.77,504.62,718.73,505.11,718.68Z"/><path class="cls-2" d="M575,751.06a19.18,19.18,0,0,1-2.57,1.72,15.71,15.71,0,0,1-6.54,2.15,17.18,17.18,0,0,1-6.89-.85,17.53,17.53,0,0,1-4.69-2.46,10.81,10.81,0,0,1-3.36-4,14.17,14.17,0,0,1-1.26-5.55,16.87,16.87,0,0,1,1.72-8.37,36,36,0,0,1,2.11-3.6,19.32,19.32,0,0,1,2.71-3.25c.44-.45.87-.87,1.3-1.27a22.84,22.84,0,0,1,9.42-5.1,15.9,15.9,0,0,1,7.91-.24q-.5-12-.18-12.52a3,3,0,0,1,1.51-1.37,7,7,0,0,1,2.45-.53,19.12,19.12,0,0,1,2.55,0,5.31,5.31,0,0,1,2.56.86c.64.46.81,3.15.53,8.07q-.13,12.76.16,21.07a56.87,56.87,0,0,0,2.27,14.72c.11.44.25.91.42,1.39a5.18,5.18,0,0,1,.28,1.42,1.84,1.84,0,0,1-1.23,1.85,8.38,8.38,0,0,1-2.94.61,16.54,16.54,0,0,1-3.3-.19,7.57,7.57,0,0,1-2.3-.65,4.47,4.47,0,0,1-1.87-2.08A17.9,17.9,0,0,1,575,751.06Zm-14.2-12.9c0,1.68,1,3.44,2.84,5.25s3.82,2.24,5.77,1.25a3.83,3.83,0,0,0,2.25-2.57,6.78,6.78,0,0,0-2.57-6.83,7.47,7.47,0,0,0-3.58-1.55,4.47,4.47,0,0,0-3.27.81C561.28,735.21,560.8,736.42,560.8,738.16Z"/><path class="cls-2" d="M603.83,740.16c-.71.38-1,.73-.88,1.06a10.07,10.07,0,0,0,4.57,4.43,12.42,12.42,0,0,0,6.15.77,14.51,14.51,0,0,0,6.43-2.73q3.74-2.48,6.33.22c1.74,1.79,1.41,3.67-1,5.64a26.24,26.24,0,0,1-5.63,3.83,15.15,15.15,0,0,1-4.59,1.11,26.82,26.82,0,0,1-5,0,22.42,22.42,0,0,1-6.43-1.51,21,21,0,0,1-4.61-2.48,17.43,17.43,0,0,1-3.9-3.82,22.69,22.69,0,0,1-4.18-9.21A15.47,15.47,0,0,1,595,724.38a18.87,18.87,0,0,1,6.31-4,37.37,37.37,0,0,1,8.35-1.95,16.5,16.5,0,0,1,9.84,1.95,11.33,11.33,0,0,1,6.19,7.82c.8,3.5.94,5.89.42,7.19a3.82,3.82,0,0,1-2.64,2.46Q621.58,738.4,603.83,740.16Zm7.68-12.78q-4.41-.33-6.36,1.48a10.69,10.69,0,0,0-2.48,3c-.1.16,0,.4.24.7s5-.15,14.21-1.37Q615.92,727.71,611.51,727.38Z"/><path class="cls-2" d="M658.21,701.63a72.68,72.68,0,0,1,13.68-1.21,46.35,46.35,0,0,1,14,1.81,21.74,21.74,0,0,1,3.16,1.25,5.32,5.32,0,0,1,2.46,2.26q.88,1.69.88,6.67t-3.16,4.76a5.73,5.73,0,0,1-1.73-.35l-1.68-.6a54,54,0,0,0-10.64-2.32,68.32,68.32,0,0,0-10.39-.28c-.42,2.81-.74,5.71-1,8.68,3.05.05,6,.12,8.72.23s4.65.24,5.66.4c2.11.36,3,1.93,2.55,4.73s-1,4.59-1.67,5.36q-1.34,1.49-6.06,1.74a75,75,0,0,1-9.37,0,69.93,69.93,0,0,0,1.76,12.94c.14.61.3,1.24.49,1.9a6.88,6.88,0,0,1,.28,1.93,2.47,2.47,0,0,1-1.9,2.37,12.34,12.34,0,0,1-4.18.57,23.19,23.19,0,0,1-4.63-.58,10.59,10.59,0,0,1-3.18-1.13,5.64,5.64,0,0,1-2.44-2.88,22.14,22.14,0,0,1-1.14-3.66,47.4,47.4,0,0,1-1-8.54q-.21-5.18,0-10.65t1-10.51a48.22,48.22,0,0,1,1.72-8.13,17.21,17.21,0,0,1,2-4.35,4.41,4.41,0,0,1,2.22-1.69,10.06,10.06,0,0,1,1.72-.37C657,701.85,657.63,701.75,658.21,701.63Z"/><path class="cls-2" d="M708.35,723.36a14.17,14.17,0,0,1,8-2.52,8.29,8.29,0,0,1,5.66,1.95q1.86,1.83.45,5.21c-.93,2.25-2.27,3.17-4,2.77a8.9,8.9,0,0,0-5.35.5c-1.83.72-2.92,2.64-3.27,5.74a29.62,29.62,0,0,0,1.27,11.1l.51,1.77a9.36,9.36,0,0,1,.33,1.81,2.36,2.36,0,0,1-1.42,2.36,8.85,8.85,0,0,1-3.39.81,16.47,16.47,0,0,1-3.84-.25,8,8,0,0,1-2.67-.84,5.4,5.4,0,0,1-2.16-2.61,23.91,23.91,0,0,1-1.14-3.37,54.11,54.11,0,0,1-1.27-8q-.45-4.87-.47-8.44t.24-6.21a11.72,11.72,0,0,1,1.08-4.18,3.75,3.75,0,0,1,1.72-1.72,8,8,0,0,1,2.86-.67,16.64,16.64,0,0,1,2.94,0,5.75,5.75,0,0,1,3,1.08c.72.59,1,1.74.74,3.45Z"/><path class="cls-2" d="M747.72,729c-.26-.71-1.28-1.48-3.06-2.3a17.24,17.24,0,0,0-6.82-.17,9.74,9.74,0,0,0-4.34,1.81,4.9,4.9,0,0,1-4.11.89,4.36,4.36,0,0,1-3.32-2.62,3.11,3.11,0,0,1,.47-3.71,17.72,17.72,0,0,1,2.62-2.35,11.16,11.16,0,0,1,1.65-1,14.86,14.86,0,0,1,4.66-1.58,37.4,37.4,0,0,1,4.83-.46,26.66,26.66,0,0,1,6.33.6,23.4,23.4,0,0,1,4.73,1.49,11.11,11.11,0,0,1,4.43,4.1,11.26,11.26,0,0,1,1.85,7.33c-.19,2.82-.3,6.17-.32,10,0,4.25.49,7.42,1.55,9.53.11.33.24.68.37,1.06a2.89,2.89,0,0,1,.15,1.12,2.4,2.4,0,0,1-.8,1.76,4.89,4.89,0,0,1-2.48,1.09,6.21,6.21,0,0,1-3.08-.14,14.16,14.16,0,0,1-2-.77,4,4,0,0,1-1.66-1.66,12.73,12.73,0,0,1-.63-1.47,17.18,17.18,0,0,1-3.16,2,17.62,17.62,0,0,1-6.16,1.37,18.72,18.72,0,0,1-6.36-1,17.81,17.81,0,0,1-4.25-2.06,8.75,8.75,0,0,1-3-3.22,9.41,9.41,0,0,1-.94-4.32A11.11,11.11,0,0,1,726.8,738c.66-.91,1.27-1.76,1.85-2.53a18.71,18.71,0,0,1,3.71-3.23,14.23,14.23,0,0,1,6.92-2.54,26.13,26.13,0,0,1,8.69.6C748.06,730.12,748,729.68,747.72,729Zm-7.24,8.27a6.05,6.05,0,0,0-3,2.83,3.83,3.83,0,0,0,.35,4.3c1,1.54,2.68,1.95,5,1.25a6.87,6.87,0,0,0,3.33-2,6.23,6.23,0,0,0,1.45-2.78,3,3,0,0,0-.83-2.74,4.86,4.86,0,0,0-2.78-1.39A6.58,6.58,0,0,0,740.48,737.23Z"/><path class="cls-2" d="M776.2,723.46a9.64,9.64,0,0,1,4.9-1.69,10,10,0,0,1,6.52,1.94,15.39,15.39,0,0,1,5.51,6.34,33.46,33.46,0,0,1,2.65,8,73.87,73.87,0,0,1,.88,7.8c.23,3.33-.09,5.9-1,7.7a1.91,1.91,0,0,1-1.44,1.13,8.86,8.86,0,0,1-4-.46,8.62,8.62,0,0,1-3.24-1.58,1.48,1.48,0,0,1-.56-.78,2.51,2.51,0,0,1-.18-1.4c.07-.52.16-1,.25-1.44a21.53,21.53,0,0,0,.25-5.37,30.63,30.63,0,0,0-.85-5.25,10.91,10.91,0,0,0-1.09-2.81q-2.1-3.45-4.89-3.15t-4,5.92c-.35,2.23-.1,5.49.77,9.78.14.56.28,1.15.4,1.77a8.87,8.87,0,0,1,.2,1.81,2.63,2.63,0,0,1-1.62,2.36,9.3,9.3,0,0,1-3.44.81,16.23,16.23,0,0,1-3.82-.25,7.5,7.5,0,0,1-2.62-.84,4.84,4.84,0,0,1-1.95-2.61,26.37,26.37,0,0,1-.9-3.37,53.57,53.57,0,0,1-.65-8c0-3.25-.06-5.58,0-7s.15-3,.33-4.9a26.1,26.1,0,0,1,1.95-6.93,4.31,4.31,0,0,1,1.86-1.72,8.41,8.41,0,0,1,2.92-.67,16.34,16.34,0,0,1,2.92,0,5.3,5.3,0,0,1,2.92,1.08c.68.59.83,1.74.46,3.45Z"/><path class="cls-2" d="M829.32,717.59a13.41,13.41,0,0,1,3.83,1.37,2.8,2.8,0,0,1,1.65,2.36,17.76,17.76,0,0,1-.28,3.16,9,9,0,0,1-1.09,3c-.77,1.34-1.52,2-2.25,2a5.92,5.92,0,0,1-1.91-.31l-1.85-.64a15.08,15.08,0,0,0-5.15-.51,16.79,16.79,0,0,0-6.12,1.39,9.36,9.36,0,0,0-4.41,3.92q-1.54,2.65,0,7.09a7.63,7.63,0,0,0,4.62,4.69,14.74,14.74,0,0,0,7.12,1.07,14.1,14.1,0,0,0,5.83-2.11q3.06-1.81,6.12,1.3a2.3,2.3,0,0,1-.07,3.64,24.23,24.23,0,0,1-3.2,2.76,15.36,15.36,0,0,1-1.9,1.16,13.89,13.89,0,0,1-5.16,1.57,28.79,28.79,0,0,1-5.17,0,24.19,24.19,0,0,1-6.58-1.55,22.25,22.25,0,0,1-4.76-2.58,18.45,18.45,0,0,1-4-3.92,23.5,23.5,0,0,1-4.32-9.49q-1.72-8.08,4-13.5a18.93,18.93,0,0,1,6.47-4.12,35.84,35.84,0,0,1,7-1.9,37.07,37.07,0,0,1,5.79-.45A26.72,26.72,0,0,1,829.32,717.59Z"/><path class="cls-2" d="M852.87,740.16c-.7.38-1,.73-.87,1.06a10,10,0,0,0,4.57,4.43,12.39,12.39,0,0,0,6.15.77,14.56,14.56,0,0,0,6.43-2.73q3.74-2.48,6.33.22t-1,5.64a26.24,26.24,0,0,1-5.62,3.83,15.15,15.15,0,0,1-4.59,1.11,26.81,26.81,0,0,1-5,0,22.56,22.56,0,0,1-6.44-1.51,21.21,21.21,0,0,1-4.6-2.48,17.22,17.22,0,0,1-3.9-3.82,22.84,22.84,0,0,1-4.19-9.21A15.5,15.5,0,0,1,844,724.38a18.91,18.91,0,0,1,6.32-4,37.41,37.41,0,0,1,8.34-1.95,16.51,16.51,0,0,1,9.85,1.95,11.33,11.33,0,0,1,6.19,7.82c.79,3.5.93,5.89.42,7.19a3.86,3.86,0,0,1-2.64,2.46Q870.63,738.4,852.87,740.16Zm7.69-12.78q-4.42-.33-6.37,1.48a11.07,11.07,0,0,0-2.48,3c-.09.16,0,.4.25.7s5-.15,14.2-1.37Q865,727.71,860.56,727.38Z"/><rect class="cls-2" x="2.5" y="727.6" width="207.09" height="9.95" rx="4.97"/><rect class="cls-2" x="941.53" y="727.6" width="207.09" height="9.95" rx="4.97"/></g></g></svg>