<?xml version="1.0" encoding="utf-8"?>
<!-- Generator: Adobe Illustrator 26.0.2, SVG Export Plug-In . SVG Version: 6.00 Build 0)  -->
<svg version="1.1" id="Layer_3" xmlns="http://www.w3.org/2000/svg" xmlns:xlink="http://www.w3.org/1999/xlink" x="0px" y="0px"
	 viewBox="0 0 64 64" style="enable-background:new 0 0 64 64;" xml:space="preserve">
<g>
	<path d="M32,11c-0.552,0-1,0.448-1,1v40c0,0.552,0.448,1,1,1s1-0.448,1-1V12C33,11.448,32.552,11,32,11z"/>
	<path d="M40,11c-0.552,0-1,0.448-1,1v40c0,0.552,0.448,1,1,1s1-0.448,1-1V12C41,11.448,40.552,11,40,11z"/>
	<rect x="35" y="15" width="2" height="34"/>
	<path d="M21,11h-6c-2.206,0-4,1.794-4,4v34c0,2.206,1.794,4,4,4h6c2.206,0,4-1.794,4-4V15C25,12.794,23.206,11,21,11z M16,16h4
		c1.105,0,2,0.895,2,2c0,1.105-0.895,2-2,2h-4c-1.105,0-2-0.895-2-2C14,16.895,14.895,16,16,16z M23,47H13v-2h10V47z M23,43H13v-2
		h10V43z"/>
	<rect x="27" y="15" width="2" height="34"/>
	<path d="M48,11c-0.552,0-1,0.448-1,1v40c0,0.552,0.448,1,1,1s1-0.448,1-1V12C49,11.448,48.552,11,48,11z"/>
	<path d="M56,11c-0.552,0-1,0.448-1,1v40c0,0.552,0.448,1,1,1s1-0.448,1-1V12C57,11.448,56.552,11,56,11z"/>
	<path d="M60,15h-1v34h1c0.552,0,1-0.448,1-1V16C61,15.448,60.552,15,60,15z"/>
	<rect x="51" y="15" width="2" height="34"/>
	<rect x="43" y="15" width="2" height="34"/>
	<path d="M6,20v2c0,1.105,0.895,2,2,2h2v-6H8C6.895,18,6,18.895,6,20z"/>
	<polygon points="6,44 1,44 1,48 6,48 6,49 10,49 10,43 6,43 	"/>
</g>
</svg>
