<?xml version="1.0" encoding="utf-8"?>
<!-- Generator: Adobe Illustrator 16.0.0, SVG Export Plug-In . SVG Version: 6.00 Build 0)  -->
<!DOCTYPE svg PUBLIC "-//W3C//DTD SVG 1.0//EN" "http://www.w3.org/TR/2001/REC-SVG-20010904/DTD/svg10.dtd">
<svg version="1.0" id="Layer_1" xmlns="http://www.w3.org/2000/svg" xmlns:xlink="http://www.w3.org/1999/xlink" x="0px" y="0px"
	 width="100px" height="100px" viewBox="0 0 100 100" enable-background="new 0 0 100 100" xml:space="preserve">
<polygon points="75,23.334 45,43.333 25,30 55,10 "/>
<polygon points="10,66.341 10,78.887 26.667,90 26.667,77.454 "/>
<polygon points="45,51.341 25,38.008 25,48.333 45,61.667 75,41.667 75,31.341 "/>
<polygon points="81.667,37.22 90,31.667 81.667,26.106 "/>
<polygon points="18.991,52.337 10,58.333 30,71.667 38.991,65.671 "/>
<polygon points="58.333,60.788 33.333,77.454 33.333,90 58.333,73.333 "/>
<polygon points="65,56.341 65,68.887 90,52.22 90,39.675 "/>
</svg>
